<svg xmlns="http://www.w3.org/2000/svg" width="32" height="32" viewBox="0 0 32 32" fill="none">
  <path d="M9.90698 13.8372C9.90698 10.6134 12.5204 8 15.7442 8C18.968 8 21.5814 10.6134 21.5814 13.8372V14.7419V16.5162C21.5814 18.1249 22.2243 19.6668 23.367 20.799C23.3957 20.8275 23.4007 20.8467 23.4027 20.8576C23.4056 20.8741 23.4045 20.8991 23.393 20.9272C23.3814 20.9553 23.3645 20.9738 23.3509 20.9835C23.3418 20.9899 23.3247 21 23.2843 21H7.92706C7.90522 21 7.8931 20.9968 7.88775 20.995C7.8821 20.9932 7.87781 20.9909 7.87371 20.9878C7.86451 20.9811 7.8503 20.9657 7.84072 20.9401C7.83115 20.9144 7.83183 20.8935 7.83435 20.8824C7.83548 20.8774 7.83721 20.8728 7.84026 20.8677C7.84314 20.8629 7.85019 20.8525 7.8667 20.8382C9.16256 19.7148 9.90698 18.0842 9.90698 16.3692V14.7419V13.8372Z" stroke="#171717" stroke-width="2" stroke-linejoin="round"/>
  <path d="M19 21C19 22.933 17.433 24.5 15.5 24.5C13.567 24.5 12 22.933 12 21" stroke="#171717" stroke-width="2"/>
  <circle cx="21.5" cy="12.5" r="2.5" fill="#7535FF"/>
</svg>