<svg xmlns="http://www.w3.org/2000/svg" width="32" height="32" viewBox="0 0 32 32" fill="none">
<path d="M12 11V7M20 11V7M11 15H21M9 25H23C23.5304 25 24.0391 24.7893 24.4142 24.4142C24.7893 24.0391 25 23.5304 25 23V11C25 10.4696 24.7893 9.96086 24.4142 9.58579C24.0391 9.21071 23.5304 9 23 9H9C8.46957 9 7.96086 9.21071 7.58579 9.58579C7.21071 9.96086 7 10.4696 7 11V23C7 23.5304 7.21071 24.0391 7.58579 24.4142C7.96086 24.7893 8.46957 25 9 25Z" stroke="#19171A" stroke-width="2" stroke-linecap="round" stroke-linejoin="round"/>
</svg>