<svg width="24" height="25" viewBox="0 0 24 25" fill="none" xmlns="http://www.w3.org/2000/svg">
<g clip-path="url(#clip0_1951_6388)">
<path d="M12 13.625C12.6213 13.625 13.125 13.1213 13.125 12.5C13.125 11.8787 12.6213 11.375 12 11.375C11.3787 11.375 10.875 11.8787 10.875 12.5C10.875 13.1213 11.3787 13.625 12 13.625Z" fill="#9F9F9F"/>
<path d="M12 7.25C12.6213 7.25 13.125 6.74632 13.125 6.125C13.125 5.50368 12.6213 5 12 5C11.3787 5 10.875 5.50368 10.875 6.125C10.875 6.74632 11.3787 7.25 12 7.25Z" fill="#9F9F9F"/>
<path d="M12 20C12.6213 20 13.125 19.4963 13.125 18.875C13.125 18.2537 12.6213 17.75 12 17.75C11.3787 17.75 10.875 18.2537 10.875 18.875C10.875 19.4963 11.3787 20 12 20Z" fill="#9F9F9F"/>
</g>
<defs>
<clipPath id="clip0_1951_6388">
<rect width="24" height="24" fill="white" transform="translate(0 0.5)"/>
</clipPath>
</defs>
</svg>
