<svg xmlns="http://www.w3.org/2000/svg" width="85" height="24" viewBox="0 0 85 24" fill="none">
  <path d="M13.0859 15.9135C13.0859 10.5586 15.919 8.29053 18.8895 8.29053C21.1246 8.29053 22.487 9.57493 23.0579 11.0495H23.1391V3.53711H28.2886V23.3172H23.1933V20.8861H23.0579C22.4579 22.3607 21.0685 23.5092 18.9437 23.5092C15.7545 23.5092 13.0859 21.0239 13.0859 15.9135ZM23.2765 15.8863C23.2765 13.6454 22.3496 12.2795 20.7976 12.2795C19.2456 12.2795 18.3999 13.6454 18.3999 15.8863C18.3999 18.1272 19.2707 19.5474 20.7976 19.5474C22.3244 19.5474 23.2765 18.1272 23.2765 15.8863Z" fill="#19171A"/>
  <path d="M39.5575 8.13477H44.669V23.1431H39.8264V20.2969H39.6651C39.0158 22.2048 37.3389 23.3374 35.1471 23.3374C32.091 23.3374 30.0625 21.0153 30.0625 17.698V8.13477H35.174V16.6204C35.174 18.1416 35.9577 19.0799 37.3369 19.0799C38.7161 19.0799 39.5825 18.1672 39.5556 16.5929V8.13477H39.5575Z" fill="#19171A"/>
  <path d="M66.4922 5.90981C66.4922 4.60047 67.6196 3.53711 69.0137 3.53711C70.4077 3.53711 71.535 4.60047 71.535 5.90981C71.535 7.21916 70.4096 8.28251 69.0137 8.28251C67.6177 8.28251 66.4922 7.21916 66.4922 5.90981ZM66.4922 9.89208H71.5598L71.5597 23.3434H66.4922L66.4922 9.89208Z" fill="#19171A"/>
  <path d="M78.2804 23.2111H73.2129V3.53711H78.2804V23.2111Z" fill="#19171A"/>
  <path d="M84.9992 23.2111H79.9316V3.53711H84.9992V23.2111Z" fill="#19171A"/>
  <path fill-rule="evenodd" clip-rule="evenodd" d="M58.9329 11.6716C62.1307 11.6716 64.7236 9.05842 64.7236 5.83578C64.7236 2.61313 62.1307 0 58.9329 0C58.9123 0 58.8922 0.00111011 58.8724 0.00220522C58.8531 0.00327112 58.834 0.0043228 58.815 0.0043228C58.7989 0.0043228 58.7828 0.00324208 58.7667 0.00216137C58.7506 0.00108068 58.7346 0 58.7185 0H50.8358C48.5668 0 46.6966 1.69237 46.3835 3.89052C46.3535 4.10233 46.332 4.31847 46.332 4.53894V23.3431H58.7185C58.7346 23.3431 58.7506 23.342 58.7667 23.3409C58.7828 23.3399 58.7989 23.3388 58.815 23.3388C58.8356 23.3388 58.8557 23.3399 58.8756 23.341C58.8949 23.3421 58.9139 23.3431 58.9329 23.3431C62.1307 23.3431 64.7236 20.73 64.7236 17.5073C64.7236 14.2847 62.1307 11.6716 58.9329 11.6716ZM56.8953 3.53709C56.8437 3.53709 56.7941 3.5411 56.7426 3.54526L56.7366 3.54574C56.713 3.54142 56.6894 3.53709 56.6658 3.53709H51.6935V9.37287H56.6658C56.6894 9.37287 56.7152 9.37071 56.7366 9.36422C56.7582 9.36509 56.7795 9.36667 56.8007 9.36823C56.8321 9.37056 56.8633 9.37287 56.8953 9.37287C58.4953 9.37287 59.7906 8.06738 59.7906 6.45498C59.7906 4.84258 58.4953 3.53709 56.8953 3.53709ZM56.7426 13.2712C56.7941 13.267 56.8437 13.263 56.8953 13.263C58.4953 13.263 59.7906 14.5685 59.7906 16.1809C59.7906 17.7933 58.4953 19.0988 56.8953 19.0988C56.8633 19.0988 56.8321 19.0965 56.8007 19.0942C56.7795 19.0926 56.7582 19.091 56.7366 19.0901C56.7152 19.0966 56.6894 19.0988 56.6658 19.0988H51.6935V13.263H56.6658C56.6894 13.263 56.713 13.2673 56.7366 13.2717L56.7426 13.2712Z" fill="url(#paint0_linear_667_1735)"/>
  <path d="M5.33574 14.0491V19.4526H12.3789V22.4893L12.3746 23.3431H0V4.53894C0 4.31847 0.0213433 4.10233 0.0512235 3.89052C0.362831 1.69237 2.22394 0 4.48202 0H12.3789V3.89052H5.33574V9.72629H11.5252V13.6168H5.33574V14.0491Z" fill="url(#paint1_linear_667_1735)"/>
  <defs>
    <linearGradient id="paint0_linear_667_1735" x1="46.332" y1="11.6716" x2="64.7236" y2="11.6716" gradientUnits="userSpaceOnUse">
      <stop stop-color="#4600DD"/>
      <stop offset="1" stop-color="#7535FF"/>
    </linearGradient>
    <linearGradient id="paint1_linear_667_1735" x1="0" y1="11.6716" x2="12.3789" y2="11.6716" gradientUnits="userSpaceOnUse">
      <stop stop-color="#4600DD"/>
      <stop offset="1" stop-color="#7535FF"/>
    </linearGradient>
  </defs>
</svg>